<svg id="Layer_1" data-name="Layer 1" xmlns="http://www.w3.org/2000/svg" viewBox="0 0 828.01 310.76"><title>Bildterapihusset - Alexander Mattsson</title><path d="M260.86,169.62c-26.44,2.61-49.57-15.93-51.66-41.41S222,76.75,248.51,77.41c2.24.06,2.25-3.8,1-4.29C214,51.21,170.06,50.32,118.78,67.9,37,95.94-14.58,170.65,3.68,234.78s99.39,93.38,181.22,65.33c75.88-26,125.7-92.15,118-152.76a2.45,2.45,0,0,0-4.58-1.08A49.45,49.45,0,0,1,260.86,169.62Zm14.6,45.94c-7.65,8.29-19.18,9.08-25.76,1.77s-5.72-20,1.93-28.24,19.18-9.08,25.76-1.77S283.11,207.27,275.47,215.56Z"/><path d="M340.72,50l14.37-1.21q3.18-.27,6.6-.32a40.14,40.14,0,0,1,6.71.46,26.09,26.09,0,0,1,6.3,1.8,16.52,16.52,0,0,1,5.36,3.69,19.37,19.37,0,0,1,3.9,6.12,28.77,28.77,0,0,1,1.93,9.07l.35,5a25.31,25.31,0,0,1-.54,7.61,23.51,23.51,0,0,1-2.4,6.29,18.42,18.42,0,0,1-3.7,4.67,13.11,13.11,0,0,1-4.44,2.71l0,.48a14.93,14.93,0,0,1,11,6.36q4,5.57,4.59,14.71l.37,5.23a37.47,37.47,0,0,1-.44,9.81,23.16,23.16,0,0,1-2.66,7.31,18.49,18.49,0,0,1-4.49,5.19,24.41,24.41,0,0,1-5.94,3.44,36.4,36.4,0,0,1-7,2,75.78,75.78,0,0,1-7.76,1l-14.92,1.26Zm19.76,42.57a17.27,17.27,0,0,0,5.16-1.19,10.52,10.52,0,0,0,3.87-2.69,10.64,10.64,0,0,0,2.29-4.37,18.71,18.71,0,0,0,.47-6.24l-.3-4.21a27.7,27.7,0,0,0-1.11-6.32,11.85,11.85,0,0,0-2.5-4.51,9.25,9.25,0,0,0-4.15-2.58,15.77,15.77,0,0,0-6-.49l-2.74.23,2.29,32.61Zm4.68,47.84a15.86,15.86,0,0,0,5.13-1.25,10.45,10.45,0,0,0,3.83-2.86,11.68,11.68,0,0,0,2.27-4.58,19.54,19.54,0,0,0,.47-6.33l-.56-8a28,28,0,0,0-1.11-6.35,11.59,11.59,0,0,0-2.5-4.51,9.4,9.4,0,0,0-4.12-2.56,15.57,15.57,0,0,0-6-.49l-4.06.34,2.59,36.94Z"/><path d="M398.36,45.11l14.2-1.2,7.22,102.76-14.2,1.2Z"/><path d="M428.8,42.54l14.2-1.2,6.36,90.48,19.36-1.64.86,12.27L436,145.3Z"/><path d="M471.57,38.92l14.75-1.25q3.34-.28,7-.38a28.73,28.73,0,0,1,7.11.7,21.58,21.58,0,0,1,6.7,2.79,19.58,19.58,0,0,1,5.79,5.86,36.23,36.23,0,0,1,4.37,9.92,72,72,0,0,1,2.4,15l2.1,29.84a73,73,0,0,1-.28,15.21,36.69,36.69,0,0,1-2.93,10.54,20.5,20.5,0,0,1-4.91,6.74,22.39,22.39,0,0,1-6.24,3.89,29.22,29.22,0,0,1-6.93,1.89q-3.58.52-6.92.8l-14.75,1.25Zm24.28,90.36a16.18,16.18,0,0,0,6.26-1.62,8.31,8.31,0,0,0,3.68-4.15,21.67,21.67,0,0,0,1.48-7.63,107,107,0,0,0-.29-12L504.73,72a106.74,106.74,0,0,0-1.39-11.9,21.24,21.24,0,0,0-2.53-7.29,8,8,0,0,0-4.22-3.49,16,16,0,0,0-6.41-.55l-3.62.31,5.66,80.5Z"/><path d="M539.51,45.52,524.43,46.8l-.86-12.27,44.31-3.75L568.74,43l-15,1.27,6.36,90.49-14.2,1.2Z"/><path d="M577.69,29.95,612.4,27l.86,12.27L592.76,41l2.16,30.74,15.85-1.34.86,12.27L595.78,84l2.47,35.19,21.06-1.78.86,12.27-35.26,3Z"/><path d="M623.43,26.08l15.41-1.3q2.63-.22,5.8-.25a30.33,30.33,0,0,1,6.39.64,23.79,23.79,0,0,1,6.28,2.28,18.26,18.26,0,0,1,5.57,4.67A26.29,26.29,0,0,1,667.1,40a44.5,44.5,0,0,1,2.21,11.77l.18,2.59q.82,11.73-1.73,19.36a21,21,0,0,1-8.3,11.38l17.91,39.82-15,1.27L647.2,88.76l-5.32.45,2.7,38.45-13.93,1.18Zm19.79,51.71a19.47,19.47,0,0,0,6.24-1.44,8.84,8.84,0,0,0,4-3.39,14.29,14.29,0,0,0,1.91-5.85,45.1,45.1,0,0,0,.1-8.75l-.57-8.12a31.17,31.17,0,0,0-1.14-6.8,11,11,0,0,0-2.55-4.57,9.12,9.12,0,0,0-4.33-2.42,19.79,19.79,0,0,0-6.53-.36l-2.14.18L641.09,78Z"/><path d="M691.44,20.33l16.34-1.38,24.55,101.29L718,121.45l-3.87-18.19L697,104.71l-1.17,18.62-14.42,1.22Zm20.18,71.34L701.44,41l-.6.05-3,51.76Z"/><path d="M734.38,16.7l14.2-1.2q2.69-.23,5.91-.23A30.23,30.23,0,0,1,761,16a22.71,22.71,0,0,1,6.41,2.51,19.31,19.31,0,0,1,5.68,5.12,29.69,29.69,0,0,1,4.32,8.5,50.89,50.89,0,0,1,2.3,12.76l.25,3.61a67.11,67.11,0,0,1-.3,14.22,39.15,39.15,0,0,1-2.73,10.16,21.68,21.68,0,0,1-10.12,11,24.74,24.74,0,0,1-6,2.14,46.84,46.84,0,0,1-5.81.89L753.6,87l2.2,31.28-14.2,1.2Zm19.13,58.78a15.37,15.37,0,0,0,6.38-1.78,9.76,9.76,0,0,0,3.93-4.21,19.64,19.64,0,0,0,1.77-6.93,61.78,61.78,0,0,0,0-10l-.65-9.27a45.22,45.22,0,0,0-1.16-7.86,13.2,13.2,0,0,0-2.55-5.32,9.16,9.16,0,0,0-4.42-2.86,18,18,0,0,0-6.71-.49l-.71.06,3.42,48.67Z"/><path d="M788.45,12.12l14.2-1.2,7.22,102.76-14.2,1.2Z"/><path d="M453.82,154.53l14.2-1.2,3,43,16.84-1.42-3-43,14.2-1.2,7.22,102.76-14.2,1.2-3.33-47.47-16.84,1.42,3.33,47.47-14.2,1.2Z"/><path d="M515.08,149.35l14.31-1.21,5.29,75.32a60.11,60.11,0,0,0,1,8,16.17,16.17,0,0,0,1.75,5,5.92,5.92,0,0,0,2.66,2.5,7.44,7.44,0,0,0,3.65.51,7.92,7.92,0,0,0,3.59-1.12,6.38,6.38,0,0,0,2.39-2.93,16.8,16.8,0,0,0,1.18-5.21,51.27,51.27,0,0,0,0-8l-5.29-75.32,14.15-1.2,5,71.17a65.53,65.53,0,0,1-.19,13,37,37,0,0,1-2.28,9.21,19.59,19.59,0,0,1-3.74,6.07,18.86,18.86,0,0,1-4.6,3.63,17.58,17.58,0,0,1-4.86,1.83,37.91,37.91,0,0,1-4.47.68,37,37,0,0,1-4.49.08,16.88,16.88,0,0,1-5-1,17.86,17.86,0,0,1-5-2.82,19.12,19.12,0,0,1-4.51-5.37,35.37,35.37,0,0,1-3.51-8.69,66.56,66.56,0,0,1-2-12.81Z"/><path d="M577.76,226.48a48.27,48.27,0,0,1-.07-6.14q.16-2.83.64-6.14l11-.93.35,5a51.06,51.06,0,0,0,1,7.3,18.2,18.2,0,0,0,1.91,5.25,7.66,7.66,0,0,0,3.09,3.07,8,8,0,0,0,4.44.74,8,8,0,0,0,6-3q2-2.62,1.64-7.31a30,30,0,0,0-.61-4.4,19.59,19.59,0,0,0-1.32-3.91,28,28,0,0,0-2.29-4,54.3,54.3,0,0,0-3.58-4.63l-16.16-18.06a48.81,48.81,0,0,1-6.87-10.65,33.27,33.27,0,0,1-3-11.82,29.23,29.23,0,0,1,.79-9.51,21.78,21.78,0,0,1,3.68-7.72,19.07,19.07,0,0,1,6.43-5.39,23.41,23.41,0,0,1,9-2.49,24.43,24.43,0,0,1,10.47,1.05,17.51,17.51,0,0,1,7,4.5,18.65,18.65,0,0,1,4,6.71,30.56,30.56,0,0,1,1.56,7.71,37.39,37.39,0,0,1,0,6.15q-.27,2.84-.64,6.26l-11,.93-.34-4.87q-.58-8.18-3-12.36a7.14,7.14,0,0,0-7.27-3.77,7.37,7.37,0,0,0-5.81,2.94,10.2,10.2,0,0,0-1.52,6.69,23.08,23.08,0,0,0,.58,3.88,16.3,16.3,0,0,0,1.1,3.14,18.92,18.92,0,0,0,1.6,2.74q.92,1.32,2.07,2.73l18,20.5a63,63,0,0,1,7.78,11.78,32.74,32.74,0,0,1,3.29,12.34,29.52,29.52,0,0,1-.87,10,21.26,21.26,0,0,1-3.94,7.84,20.08,20.08,0,0,1-6.69,5.32,24.94,24.94,0,0,1-9.15,2.44,26,26,0,0,1-10.69-1,17.41,17.41,0,0,1-7-4.37,17.87,17.87,0,0,1-4-6.68A31.55,31.55,0,0,1,577.76,226.48Z"/><path d="M628.27,139.78,663,136.84l.86,12.27-20.51,1.73,2.16,30.74,15.85-1.34.86,12.27-15.85,1.34,2.47,35.19,21.06-1.78.86,12.27-35.26,3Z"/><path d="M683.54,147.45l-15.08,1.27-.86-12.27,44.31-3.75.86,12.27-15,1.27,6.36,90.49-14.2,1.2Z"/></svg>